<svg version="1.1" xmlns="http://www.w3.org/2000/svg" viewBox="0 0 621.3124484193931 257.6406860802398" width="621.3124484193931" height="257.6406860802398">
  <!-- svg-source:excalidraw -->
  
  <defs>
    <style class="style-fonts">
      @font-face {
        font-family: "Virgil";
        src: url("https://excalidraw.com/Virgil.woff2");
      }
      @font-face {
        font-family: "Cascadia";
        src: url("https://excalidraw.com/Cascadia.woff2");
      }
    </style>
  </defs>
  <rect x="0" y="0" width="621.3124484193931" height="257.6406860802398" fill="#ffffff"></rect><g stroke-linecap="round" transform="translate(10 10) rotate(0 300.6562242096966 118.8203430401199)"><path d="M32 0 M32 0 C228.39 4.09, 426.09 1.53, 569.31 0 M32 0 C143.32 -4.41, 253.62 -4.1, 569.31 0 M569.31 0 C593.5 1.44, 604.91 11.63, 601.31 32 M569.31 0 C588.21 -3.66, 599.2 12.32, 601.31 32 M601.31 32 C605.35 75.15, 606.2 114, 601.31 205.64 M601.31 32 C601.83 78.42, 603.07 125.93, 601.31 205.64 M601.31 205.64 C599.77 226.73, 586.96 237.64, 569.31 237.64 M601.31 205.64 C604.42 226.24, 592.72 234.17, 569.31 237.64 M569.31 237.64 C419.86 237.58, 269.36 240.54, 32 237.64 M569.31 237.64 C374.96 238.19, 179.48 237.09, 32 237.64 M32 237.64 C14.42 241.03, -2 230.46, 0 205.64 M32 237.64 C7.62 240.04, 3.94 226.06, 0 205.64 M0 205.64 C4.4 151.66, 3.46 95.56, 0 32 M0 205.64 C-3.43 152.44, -3.33 102.38, 0 32 M0 32 C1.93 7.46, 12.04 -2.24, 32 0 M0 32 C-0.8 8.25, 6.71 -4.15, 32 0" stroke="#000000" stroke-width="4" fill="none"></path></g><g stroke-linecap="round" transform="translate(39.43296630592823 83.69520577703071) rotate(0 44 17.5)"><path d="M8.75 0 M8.75 0 C21.36 -0.52, 38.81 -1.18, 79.25 0 M8.75 0 C30.62 0.11, 51.89 1.06, 79.25 0 M79.25 0 C85.83 0.56, 87.26 2.69, 88 8.75 M79.25 0 C85.18 -2.05, 89.26 1.46, 88 8.75 M88 8.75 C89.28 14.28, 89.57 20.89, 88 26.25 M88 8.75 C88.51 14.42, 87.78 21.14, 88 26.25 M88 26.25 C86.65 30.39, 83.5 36.7, 79.25 35 M88 26.25 C88.63 32.03, 84.23 33.52, 79.25 35 M79.25 35 C61.17 36.24, 44.32 35.43, 8.75 35 M79.25 35 C62.41 35.51, 46 35.49, 8.75 35 M8.75 35 C4.61 36.58, 1.88 31.57, 0 26.25 M8.75 35 C1.48 33.42, 2.03 30.49, 0 26.25 M0 26.25 C1.16 21.4, 1.5 15.58, 0 8.75 M0 26.25 C0.33 22.99, 0.09 18.26, 0 8.75 M0 8.75 C0.65 3.13, 2.59 1.36, 8.75 0 M0 8.75 C-0.44 2.08, 2.96 -1.54, 8.75 0" stroke="#000000" stroke-width="1" fill="none"></path></g><g transform="translate(46.81300933571339 88.69520577703071) rotate(0 36.619956970214844 12.5)"><text x="36.619956970214844" y="0" font-family="Virgil, Segoe UI Emoji" font-size="20px" fill="#000000" text-anchor="middle" style="white-space: pre;" direction="ltr" dominant-baseline="text-before-edge">"apples"</text></g><g stroke-linecap="round" transform="translate(128.67036226334636 83.22988932982452) rotate(0 54 17.5)"><path d="M8.75 0 M8.75 0 C29.23 2.11, 48.55 -0.79, 99.25 0 M8.75 0 C39.99 0.29, 70.51 0.53, 99.25 0 M99.25 0 C105.19 -0.07, 106.25 4.04, 108 8.75 M99.25 0 C105.86 -0.11, 108.53 4.88, 108 8.75 M108 8.75 C107.52 13.71, 109.6 22.9, 108 26.25 M108 8.75 C107.4 13.83, 108.55 19.1, 108 26.25 M108 26.25 C109.18 32.88, 106.6 33.44, 99.25 35 M108 26.25 C109.24 32.44, 105.57 36.79, 99.25 35 M99.25 35 C74.44 34.62, 47.59 34.09, 8.75 35 M99.25 35 C73.46 34.46, 47.97 34.68, 8.75 35 M8.75 35 C3.83 34.34, -1.61 31.34, 0 26.25 M8.75 35 C1.44 35.51, 0.89 30.8, 0 26.25 M0 26.25 C0.2 21.84, 0.57 15.18, 0 8.75 M0 26.25 C0.32 19.45, 0.34 13.68, 0 8.75 M0 8.75 C-1.5 2.28, 4.39 1.67, 8.75 0 M0 8.75 C-0.95 1.86, 2.61 -0.55, 8.75 0" stroke="#000000" stroke-width="1" fill="none"></path></g><g transform="translate(136.25040987076824 88.22988932982452) rotate(0 46.419952392578125 12.5)"><text x="46.419952392578125" y="0" font-family="Virgil, Segoe UI Emoji" font-size="20px" fill="#000000" text-anchor="middle" style="white-space: pre;" direction="ltr" dominant-baseline="text-before-edge">"bananas"</text></g><g stroke-linecap="round" transform="translate(237.46907727996614 83.56151354838158) rotate(0 68 17.5)"><path d="M8.75 0 M8.75 0 C41.94 0.78, 72.22 -0.27, 127.25 0 M8.75 0 C35.81 -1.58, 63.56 -0.01, 127.25 0 M127.25 0 C131.17 0.87, 135.96 4.81, 136 8.75 M127.25 0 C131.62 0.86, 134.88 4.29, 136 8.75 M136 8.75 C136.13 12.19, 137.78 18.39, 136 26.25 M136 8.75 C136.72 13.85, 136.66 18.45, 136 26.25 M136 26.25 C137.57 30.4, 131.71 33.93, 127.25 35 M136 26.25 C136.5 33.1, 135.09 36.9, 127.25 35 M127.25 35 C88.15 37.57, 52.64 36.57, 8.75 35 M127.25 35 C100.72 33.65, 73.64 33.82, 8.75 35 M8.75 35 C1.55 34.62, -1.08 32.72, 0 26.25 M8.75 35 C1.05 34.9, 1.09 31.52, 0 26.25 M0 26.25 C0.45 20.94, 0.27 18.5, 0 8.75 M0 26.25 C0.42 19.69, 0.54 13.28, 0 8.75 M0 8.75 C0.64 4.53, 2.83 1.48, 8.75 0 M0 8.75 C1.91 4.69, 0.82 -0.74, 8.75 0" stroke="#000000" stroke-width="1" fill="none"></path></g><g transform="translate(250.89913099090364 88.56151354838158) rotate(0 54.5699462890625 12.5)"><text x="54.5699462890625" y="0" font-family="Virgil, Segoe UI Emoji" font-size="20px" fill="#000000" text-anchor="middle" style="white-space: pre;" direction="ltr" dominant-baseline="text-before-edge">"cucumbers"</text></g><g stroke-linecap="round" transform="translate(457.23665508762195 85.92576597252179) rotate(0 67.99999999999994 17.5)"><path d="M8.75 0 M8.75 0 C33.52 -1.11, 58.58 -0.78, 127.25 0 M8.75 0 C36.31 -0.13, 65.67 -0.75, 127.25 0 M127.25 0 C132.44 -0.54, 136.28 3.96, 136 8.75 M127.25 0 C131.49 0.5, 133.73 1.05, 136 8.75 M136 8.75 C135.39 12.33, 135.64 18.42, 136 26.25 M136 8.75 C136.68 13.97, 136.55 21.21, 136 26.25 M136 26.25 C136.57 30.46, 132.59 33.21, 127.25 35 M136 26.25 C136.85 30.2, 130.79 36.48, 127.25 35 M127.25 35 C89.54 33.54, 55.64 32.62, 8.75 35 M127.25 35 C100.59 34.17, 73.66 35.31, 8.75 35 M8.75 35 C4.54 34.39, 1.65 31.36, 0 26.25 M8.75 35 C2.19 34.3, 2 30.71, 0 26.25 M0 26.25 C0.38 19.41, -0.92 15.92, 0 8.75 M0 26.25 C0.32 19.7, -0.2 13.35, 0 8.75 M0 8.75 C-1.07 1.21, 1.69 1.69, 8.75 0 M0 8.75 C0.73 0.91, 2.67 -1.67, 8.75 0" stroke="#000000" stroke-width="1" fill="none"></path></g><g transform="translate(462.8767231418212 90.92576597252179) rotate(0 62.359931945800724 12.5)"><text x="62.35993194580078" y="0" font-family="Virgil, Segoe UI Emoji" font-size="20px" fill="#000000" text-anchor="middle" style="white-space: pre;" direction="ltr" dominant-baseline="text-before-edge">"elderberries"</text></g><g stroke-linecap="round" transform="translate(374.2729196409145 84.49741125327893) rotate(0 41.5 17.5)"><path d="M8.75 0 M8.75 0 C32.66 0.31, 56.89 -0.01, 74.25 0 M8.75 0 C32.16 0.28, 56.22 -0.19, 74.25 0 M74.25 0 C78.37 -1.57, 81.25 3.39, 83 8.75 M74.25 0 C81.36 1.14, 83.26 1.28, 83 8.75 M83 8.75 C81.7 14.13, 81.68 19.75, 83 26.25 M83 8.75 C82.75 13.64, 82.09 17.3, 83 26.25 M83 26.25 C83.5 32.46, 81.31 34.39, 74.25 35 M83 26.25 C82.38 30.73, 79.24 35.45, 74.25 35 M74.25 35 C47.96 35.6, 22.83 36.02, 8.75 35 M74.25 35 C57.18 34.25, 40.33 35.15, 8.75 35 M8.75 35 C2.02 34.25, 1.08 30.78, 0 26.25 M8.75 35 C3.57 36.2, -0.6 29.79, 0 26.25 M0 26.25 C-0.26 22.57, -1.15 19.65, 0 8.75 M0 26.25 C0.3 20.56, -0.34 15.07, 0 8.75 M0 8.75 C0.15 3.85, 2.06 0.27, 8.75 0 M0 8.75 C-0.63 4.26, 2.82 0.21, 8.75 0" stroke="#000000" stroke-width="1" fill="none"></path></g><g transform="translate(380.302956567184 89.49741125327893) rotate(0 35.46996307373047 12.5)"><text x="35.46996307373047" y="0" font-family="Virgil, Segoe UI Emoji" font-size="20px" fill="#000000" text-anchor="middle" style="white-space: pre;" direction="ltr" dominant-baseline="text-before-edge">"dates"</text></g><g transform="translate(53.89141959265663 122.86365038111649) rotate(0 28.416061401367188 10)"><text x="0" y="0" font-family="Virgil, Segoe UI Emoji" font-size="16px" fill="#000000" text-anchor="start" style="white-space: pre;" direction="ltr" dominant-baseline="text-before-edge">index 0</text></g><g transform="translate(156.0634007372352 119.69622450331951) rotate(0 25.080055236816406 10)"><text x="0" y="0" font-family="Virgil, Segoe UI Emoji" font-size="16px" fill="#000000" text-anchor="start" style="white-space: pre;" direction="ltr" dominant-baseline="text-before-edge">index 1</text></g><g transform="translate(280.18109167814197 122.79900142447349) rotate(0 28.608062744140625 10)"><text x="0" y="0" font-family="Virgil, Segoe UI Emoji" font-size="16px" fill="#000000" text-anchor="start" style="white-space: pre;" direction="ltr" dominant-baseline="text-before-edge">index 2</text></g><g transform="translate(387.36923506188117 120.88561610646673) rotate(0 28.360061645507812 10)"><text x="0" y="0" font-family="Virgil, Segoe UI Emoji" font-size="16px" fill="#000000" text-anchor="start" style="white-space: pre;" direction="ltr" dominant-baseline="text-before-edge">index 3</text></g><g transform="translate(492.04929732604006 120.22627134825012) rotate(0 28.032058715820312 10)"><text x="0" y="0" font-family="Virgil, Segoe UI Emoji" font-size="16px" fill="#000000" text-anchor="start" style="white-space: pre;" direction="ltr" dominant-baseline="text-before-edge">index 4</text></g><g transform="translate(43.859095114334934 160.484867174822) rotate(0 190.82080078125 17.49999999999997)"><text x="0" y="0" font-family="Virgil, Segoe UI Emoji" font-size="28px" fill="#000000" text-anchor="start" style="white-space: pre;" direction="ltr" dominant-baseline="text-before-edge">The size of this array is 5</text></g></svg>